<svg width="25" height="12" viewBox="0 0 25 12" fill="none" xmlns="http://www.w3.org/2000/svg">
<path opacity="0.4" fill-rule="evenodd" clip-rule="evenodd" d="M3.33866 1.3335H20.0053C20.9258 1.3335 21.672 2.07969 21.672 3.00016V9.00016C21.672 9.92064 20.9258 10.6668 20.0053 10.6668H3.33866C2.41819 10.6668 1.672 9.92064 1.672 9.00016V3.00016C1.672 2.07969 2.41819 1.3335 3.33866 1.3335ZM0.671997 3.00016C0.671997 1.5274 1.8659 0.333496 3.33866 0.333496H20.0053C21.4781 0.333496 22.672 1.5274 22.672 3.00016V9.00016C22.672 10.4729 21.4781 11.6668 20.0053 11.6668H3.33866C1.8659 11.6668 0.671997 10.4729 0.671997 9.00016V3.00016ZM25 6.00021C25 6.87335 24.4767 7.66144 23.6719 8.00021V4.00021C24.4767 4.33899 25 5.12708 25 6.00021Z" fill="black"/>
<rect x="2.67188" y="2.3335" width="18" height="7.33333" rx="1.33333" fill="black"/>
</svg>
