<svg width="16" height="12" viewBox="0 0 16 12" fill="none" xmlns="http://www.w3.org/2000/svg">
<path fill-rule="evenodd" clip-rule="evenodd" d="M8.03626 2.79442C10.2522 2.79451 12.3833 3.64595 13.9893 5.17275C14.1102 5.29063 14.3035 5.28914 14.4226 5.16942L15.5786 4.00275C15.6389 3.94203 15.6725 3.85978 15.672 3.7742C15.6715 3.68862 15.6369 3.60676 15.5759 3.54675C11.3608 -0.492797 4.71103 -0.492797 0.495931 3.54675C0.434872 3.60672 0.400228 3.68855 0.399665 3.77413C0.399102 3.85971 0.432666 3.94198 0.492931 4.00275L1.64926 5.16942C1.76829 5.28932 1.96174 5.29081 2.0826 5.17275C3.68875 3.64585 5.82015 2.79441 8.03626 2.79442ZM8.03629 6.58998C9.25378 6.5899 10.4278 7.04244 11.3303 7.85964C11.4524 7.97563 11.6446 7.97311 11.7636 7.85398L12.9183 6.68731C12.9791 6.62612 13.0128 6.5431 13.012 6.45684C13.0111 6.37057 12.9757 6.28826 12.9136 6.22831C10.1654 3.67193 5.90949 3.67193 3.1613 6.22831C3.09922 6.28826 3.0638 6.37061 3.06298 6.4569C3.06217 6.5432 3.09603 6.6262 3.15696 6.68731L4.3113 7.85398C4.43028 7.97311 4.62257 7.97563 4.74463 7.85964C5.6465 7.04298 6.81961 6.59048 8.03629 6.58998ZM10.3494 9.14377C10.3512 9.23028 10.3172 9.31368 10.2554 9.37429L8.25807 11.39C8.19952 11.4492 8.11969 11.4825 8.0364 11.4825C7.95311 11.4825 7.87329 11.4492 7.81474 11.39L5.81707 9.37429C5.75536 9.31364 5.72141 9.23021 5.72324 9.1437C5.72507 9.05719 5.76251 8.97528 5.82674 8.91729C7.10231 7.8384 8.9705 7.8384 10.2461 8.91729C10.3102 8.97532 10.3476 9.05727 10.3494 9.14377Z" fill="black"/>
</svg>
