<svg width="18" height="12" viewBox="0 0 18 12" fill="none" xmlns="http://www.w3.org/2000/svg">
<path fill-rule="evenodd" clip-rule="evenodd" d="M16.3996 0.666504H15.3996C14.8473 0.666504 14.3996 1.11422 14.3996 1.6665V10.3332C14.3996 10.8855 14.8473 11.3332 15.3996 11.3332H16.3996C16.9519 11.3332 17.3996 10.8855 17.3996 10.3332V1.6665C17.3996 1.11422 16.9519 0.666504 16.3996 0.666504ZM10.7329 2.99981H11.7329C12.2852 2.99981 12.7329 3.44752 12.7329 3.99981V10.3331C12.7329 10.8854 12.2852 11.3331 11.7329 11.3331H10.7329C10.1806 11.3331 9.73287 10.8854 9.73287 10.3331V3.99981C9.73287 3.44752 10.1806 2.99981 10.7329 2.99981ZM7.06639 5.33329H6.06639C5.5141 5.33329 5.06639 5.78101 5.06639 6.33329V10.3333C5.06639 10.8856 5.5141 11.3333 6.06639 11.3333H7.06639C7.61867 11.3333 8.06639 10.8856 8.06639 10.3333V6.33329C8.06639 5.78101 7.61867 5.33329 7.06639 5.33329ZM2.39966 7.3333H1.39966C0.847373 7.3333 0.399658 7.78102 0.399658 8.3333V10.3333C0.399658 10.8856 0.847373 11.3333 1.39966 11.3333H2.39966C2.95194 11.3333 3.39966 10.8856 3.39966 10.3333V8.3333C3.39966 7.78102 2.95194 7.3333 2.39966 7.3333Z" fill="black"/>
</svg>
