<svg width="32" height="32" viewBox="0 0 32 32" fill="none" xmlns="http://www.w3.org/2000/svg">
<path fill-rule="evenodd" clip-rule="evenodd" d="M10.0833 16C10.0833 15.7699 10.2699 15.5834 10.5 15.5834H21.5C21.7301 15.5834 21.9167 15.7699 21.9167 16C21.9167 16.2302 21.7301 16.4167 21.5 16.4167H10.5C10.2699 16.4167 10.0833 16.2302 10.0833 16Z" fill="#182840"/>
<path fill-rule="evenodd" clip-rule="evenodd" d="M16.7054 11.2054C16.8681 11.0427 17.1319 11.0427 17.2946 11.2054L21.7946 15.7054C21.9574 15.8681 21.9574 16.132 21.7946 16.2947L17.2946 20.7947C17.1319 20.9574 16.8681 20.9574 16.7054 20.7947C16.5427 20.632 16.5427 20.3681 16.7054 20.2054L20.9108 16L16.7054 11.7947C16.5427 11.632 16.5427 11.3681 16.7054 11.2054Z" fill="#182840"/>
<rect x="0.5" y="0.5" width="31" height="31" rx="15.5" stroke="#979EA9"/>
</svg>
