<svg width="24" height="24" viewBox="0 0 24 24" fill="none" xmlns="http://www.w3.org/2000/svg">
<g clip-path="url(#clip0_814_5516)">
<path fill-rule="evenodd" clip-rule="evenodd" d="M21 3.875C21.3452 3.875 21.625 4.15482 21.625 4.5V9.5C21.625 9.84518 21.3452 10.125 21 10.125H16C15.6548 10.125 15.375 9.84518 15.375 9.5C15.375 9.15482 15.6548 8.875 16 8.875H20.375V4.5C20.375 4.15482 20.6548 3.875 21 3.875Z" fill="#182840"/>
<path fill-rule="evenodd" clip-rule="evenodd" d="M13.156 4.27705C11.608 3.97213 10.0034 4.12804 8.54543 4.72479C7.08755 5.32151 5.84256 6.33186 4.96714 7.62694C4.09178 8.92195 3.625 10.4438 3.625 12C3.625 13.5562 4.09178 15.0781 4.96714 16.3731C5.84256 17.6681 7.08755 18.6785 8.54543 19.2752C10.0034 19.872 11.608 20.0279 13.156 19.7229C14.7039 19.418 16.1246 18.6662 17.2388 17.5637C17.4842 17.3209 17.8799 17.323 18.1227 17.5683C18.3655 17.8137 18.3634 18.2094 18.118 18.4522C16.8282 19.7286 15.1853 20.5972 13.3975 20.9494C11.6098 21.3015 9.75658 21.1216 8.07193 20.4321C6.38721 19.7425 4.94604 18.5739 3.93154 17.0731C2.91698 15.5721 2.375 13.8067 2.375 12C2.375 10.1933 2.91698 8.42786 3.93154 6.92693C4.94604 5.42608 6.38721 4.2575 8.07193 3.56794C9.75658 2.8784 11.6098 2.69847 13.3975 3.05062C15.1851 3.40273 16.8278 4.27123 18.1176 5.54735C18.1178 5.54749 18.1175 5.5472 18.1176 5.54735L21.4388 8.82139C21.6846 9.06372 21.6874 9.45944 21.4451 9.70525C21.2028 9.95107 20.807 9.95389 20.5612 9.71157L17.2388 6.43631C16.1246 5.33379 14.7039 4.58197 13.156 4.27705Z" fill="#182840"/>
</g>
<defs>
<clipPath id="clip0_814_5516">
<rect width="24" height="24" fill="white"/>
</clipPath>
</defs>
</svg>
